<svg width="247" height="34" viewBox="0 0 247 34" fill="none" xmlns="http://www.w3.org/2000/svg">
<path fill-rule="evenodd" clip-rule="evenodd" d="M55.3829 10.6765C54.6147 9.54921 53.6019 8.71925 52.3723 8.2012C51.2273 7.71782 50.0576 7.57007 48.8727 7.57007C47.6871 7.57007 46.5175 7.71782 45.3719 8.2012C44.1428 8.71925 43.1301 9.54921 42.3619 10.6765C41.2275 12.3401 40.8278 14.5545 40.8354 16.1919C40.8425 17.83 40.9923 18.7232 41.4567 19.9368C42.0586 21.508 43.0355 22.7666 44.4402 23.6549C45.7816 24.5025 47.3115 24.8053 48.8727 24.8053C50.4338 24.8053 51.9638 24.5025 53.3045 23.6549C54.7093 22.7666 55.6862 21.508 56.2881 19.9368C56.7524 18.7232 56.9023 17.83 56.91 16.1919C56.917 14.5545 56.5173 12.3401 55.3829 10.6765ZM52.578 20.2397C51.7986 21.6169 50.3797 22.276 48.8727 22.276C47.365 22.276 45.9461 21.6169 45.1667 20.2397C44.5748 19.1933 44.2862 17.4719 44.3068 16.3757C44.3274 15.2782 44.3421 14.4172 44.6089 13.4365C44.9904 12.0331 45.7574 10.9271 47.124 10.3702C47.6801 10.1434 48.2778 10.0947 48.8727 10.0947C49.4669 10.0947 50.0647 10.1434 50.6207 10.3702C51.9879 10.9271 52.7544 12.0331 53.1358 13.4365C53.4027 14.4172 53.4174 15.2782 53.4379 16.3757C53.4585 17.4719 53.1693 19.1933 52.578 20.2397Z" fill="#404A71"/>
<path fill-rule="evenodd" clip-rule="evenodd" d="M101.125 24.0446C100.486 24.0446 99.8778 24.0465 99.2706 24.0416C99.2283 24.041 99.1625 24.0027 99.1478 23.965C98.5582 22.4632 97.626 21.1942 96.6356 19.9599C95.4395 18.4696 94.258 16.9666 93.0701 15.469C93.0484 15.4416 93.0249 15.4149 92.9626 15.3413V15.6003C92.962 17.6877 92.9538 19.7757 92.9696 21.8636C92.9726 22.2662 93.0402 22.6754 93.1342 23.0669C93.2412 23.512 93.5151 23.8458 93.9871 24.0319H90.0437C90.7655 23.6008 90.8513 22.8639 90.863 22.1312C90.8895 20.4846 90.8736 18.8375 90.8736 17.1903C90.8742 16.0557 90.8413 14.9193 90.883 13.7866C90.9265 12.5839 90.3734 11.7892 89.4159 11.2207C89.3701 11.1806 89.3189 11.1471 89.2531 11.0875H89.413C90.6038 11.0875 91.7947 11.0887 92.9855 11.0857C93.1019 11.0851 93.1754 11.1161 93.2518 11.2146C95.1432 13.6723 97.0394 16.1263 98.935 18.5809L99.0496 18.7165L99.0514 18.5481C99.049 16.6747 99.0473 14.8008 99.0396 12.9268C99.0379 12.5352 98.9609 12.1558 98.7986 11.7989C98.6587 11.4913 98.4466 11.2547 98.1004 11.0985H101.988C101.346 11.4572 101.221 12.081 101.149 12.7256C101.123 12.9566 101.126 13.1919 101.126 13.4254C101.125 16.8748 101.125 20.3241 101.125 23.7741V24.0446Z" fill="#404A71"/>
<path fill-rule="evenodd" clip-rule="evenodd" d="M71.791 11.0857H76.2552C75.5134 11.521 75.3959 12.2519 75.3841 12.9973C75.3588 14.5983 75.3741 16.2004 75.3741 17.802C75.3735 19.1828 75.37 20.5643 75.377 21.9451C75.3788 22.2351 75.4047 22.5276 75.4493 22.814C75.5281 23.3235 75.7303 23.7619 76.2405 24.0264H71.8292C72.4199 23.7437 72.5863 23.211 72.6621 22.6328C72.6968 22.3707 72.7015 22.1032 72.7021 21.8381C72.7044 18.9785 72.7056 16.119 72.7003 13.26C72.6997 12.9633 72.6727 12.6647 72.628 12.3717C72.5451 11.8354 72.3318 11.3751 71.791 11.0857Z" fill="#404A71"/>
<path fill-rule="evenodd" clip-rule="evenodd" d="M78.9346 11.0857H87.3669V14.4329C87.257 14.2049 87.1664 13.9842 87.0483 13.7799C86.7039 13.1828 86.1549 12.9067 85.5154 12.877C84.6078 12.8356 83.698 12.8575 82.7898 12.852C82.7722 12.852 82.7546 12.8624 82.7258 12.8715V16.5762C82.7381 16.5835 82.7487 16.5963 82.7593 16.5963C83.5986 16.5859 84.4386 16.5914 85.2767 16.5555C85.6623 16.5385 86.0214 16.3908 86.2713 16.0004V18.9329C85.9815 18.5128 85.5665 18.4027 85.128 18.3936C84.3333 18.3766 83.5387 18.3887 82.7281 18.3887V22.2193C82.7387 22.2242 82.7552 22.2394 82.771 22.2394C83.7485 22.2351 84.7266 22.2394 85.7035 22.2199C86.7803 22.1999 87.545 21.649 88.0516 20.6841C88.0834 20.6239 88.1216 20.5667 88.1862 20.5193C87.9934 21.6806 87.8001 22.842 87.6043 24.0185H79.1256C79.7645 23.6598 79.9121 23.0238 79.9814 22.358C80.0196 21.9919 80.0202 21.6204 80.0208 21.2513C80.0238 18.6125 80.0249 15.9736 80.0185 13.3342C80.0179 13.0125 79.992 12.6848 79.9279 12.3711C79.8116 11.7977 79.5394 11.3265 78.9346 11.0857Z" fill="#404A71"/>
<path fill-rule="evenodd" clip-rule="evenodd" d="M64.2495 17.1828C63.7376 17.2065 63.2238 17.1883 62.6978 17.1883V12.8567C63.4425 12.892 64.189 12.771 64.9161 13.0172C65.7137 13.2872 66.2591 14.1129 66.2327 15.0018C66.1957 16.2556 65.4574 17.1269 64.2495 17.1828ZM68.6679 22.8795C68.053 21.8282 67.4629 20.7617 66.8657 19.7001C66.613 19.2495 66.3467 18.8124 65.9259 18.5047C65.9159 18.4974 65.9194 18.4719 65.9159 18.4536C67.6404 18.1843 68.736 16.894 68.913 15.2822C69.0628 13.9135 68.351 12.4414 67.1261 11.7398C66.3044 11.2692 65.4192 11.0904 64.4935 11.088C62.7442 11.0837 60.9956 11.0867 59.2469 11.0867H59.0912C59.6196 11.3464 59.897 11.7933 60.0093 12.3484C60.0798 12.7005 60.121 13.0659 60.1221 13.4246C60.1316 16.148 60.128 18.872 60.1251 21.5953C60.1245 21.906 60.1227 22.2192 60.0851 22.5262C60.0111 23.1355 59.8606 23.7107 59.2375 24.0341H63.5883C63.1933 23.8542 62.9958 23.5483 62.89 23.1908C62.8048 22.9026 62.7354 22.5974 62.7289 22.2988C62.7048 21.2226 62.7101 20.1464 62.7054 19.0696C62.7054 19.0331 62.7137 18.9966 62.7178 18.9619C63.1962 18.8866 63.5671 19.0434 63.8375 19.4423C63.9345 19.5852 64.0309 19.7293 64.1114 19.8819C64.8144 21.2159 65.5162 22.5505 66.2109 23.8888C66.275 24.011 66.3444 24.0475 66.4725 24.0469C67.5816 24.042 68.6914 24.0439 69.8011 24.0439H69.9616C69.3861 23.8195 68.9729 23.4012 68.6679 22.8795Z" fill="#404A71"/>
<path fill-rule="evenodd" clip-rule="evenodd" d="M103.74 14.5363C103.841 13.3628 103.938 12.2294 104.036 11.0857H114.736C114.827 12.2227 114.918 13.3573 115.013 14.532C114.884 14.2772 114.78 14.0535 114.659 13.8389C114.316 13.2302 113.781 12.9128 113.12 12.877C112.326 12.8344 111.54 12.8678 110.748 12.8502V13.0952C110.748 15.9749 110.747 18.8545 110.749 21.7335C110.75 22.285 110.774 22.834 110.993 23.3521C111.126 23.6689 111.285 23.8464 111.604 24.0191H107.171C107.817 23.6622 107.906 23.0128 107.978 22.3604C108.004 22.1293 107.998 21.8946 107.998 21.6612C107.999 18.8138 107.998 15.9676 107.998 13.1202V12.8514L105.557 12.866C104.943 12.8757 104.483 13.1755 104.168 13.7118C104.02 13.9641 103.897 14.2322 103.74 14.5363Z" fill="#404A71"/>
<path fill-rule="evenodd" clip-rule="evenodd" d="M154.089 18.8624C154.657 17.352 155.219 15.8573 155.795 14.3264C156.382 15.8567 156.956 17.352 157.537 18.8624H154.089ZM158.232 23.3938H162.936C162.729 23.2032 162.456 23.0231 162.282 22.7734C161.981 22.3442 161.692 21.8933 161.488 21.4121C160.839 19.8818 160.232 18.3333 159.609 16.7913C158.863 14.9446 158.115 13.0991 157.372 11.2506C157.323 11.1284 157.265 11.084 157.131 11.0857C156.524 11.0933 155.916 11.0922 155.308 11.0869C155.182 11.0857 155.109 11.1121 155.067 11.246C154.996 11.4705 154.899 11.6863 154.813 11.9062C153.656 14.8914 152.506 17.8789 151.338 20.8601C150.963 21.815 150.591 22.7845 149.677 23.3944H153.537C153.033 23.126 152.808 22.7559 152.929 22.2588C153.076 21.6583 153.281 21.0729 153.462 20.4823C155.018 20.4823 156.543 20.4811 158.068 20.487C158.113 20.487 158.183 20.5501 158.201 20.5987C158.373 21.0519 158.544 21.5045 158.695 21.9641C158.763 22.1682 158.816 22.3875 158.816 22.5997C158.816 22.9687 158.627 23.2401 158.232 23.3938Z" fill="#404A71"/>
<path fill-rule="evenodd" clip-rule="evenodd" d="M139.844 15.1486V15.3369C139.844 17.3263 139.835 19.3151 139.851 21.3044C139.855 21.6974 139.924 22.0968 140.019 22.4792C140.122 22.8932 140.385 23.2084 140.842 23.3856H136.975C137.513 23.1236 137.671 22.6377 137.748 22.1173C137.792 21.8167 137.801 21.5091 137.801 21.2044C137.805 18.6414 137.786 16.0784 137.812 13.516C137.822 12.5657 137.403 11.9038 136.663 11.3921C136.521 11.2939 136.357 11.1962 136.183 11.088L136.371 11.0886C137.537 11.088 138.702 11.0898 139.868 11.0857C139.984 11.0851 140.058 11.1173 140.132 11.2108C141.537 12.9844 142.945 14.7551 144.353 16.5263C144.809 17.1006 145.264 17.6754 145.719 18.2514L145.798 18.3607V18.1666C145.796 16.3959 145.807 14.6247 145.782 12.854C145.777 12.4967 145.667 12.1318 145.554 11.7868C145.453 11.474 145.217 11.2459 144.859 11.0968H148.676C148.146 11.3699 147.971 11.8441 147.889 12.3605C147.843 12.6546 147.833 12.9564 147.833 13.2546C147.829 16.5474 147.831 19.8396 147.831 23.1318V23.3997H147.511C147.027 23.3997 146.543 23.4037 146.06 23.3956C145.997 23.3944 145.899 23.3482 145.879 23.2979C145.447 22.2202 144.832 21.2524 144.109 20.3548C142.719 18.6256 141.31 16.9117 139.907 15.1913C139.9 15.1826 139.887 15.1779 139.844 15.1486Z" fill="#404A71"/>
<path fill-rule="evenodd" clip-rule="evenodd" d="M129.834 11.0857H134.253C133.517 11.5038 133.401 12.2073 133.389 12.9242C133.364 14.4329 133.38 15.9416 133.379 17.4508C133.379 18.8104 133.375 20.17 133.382 21.529C133.384 21.8144 133.409 22.1021 133.456 22.3833C133.537 22.8658 133.736 23.2815 134.237 23.5318H129.875C130.463 23.2558 130.627 22.7377 130.697 22.1734C130.731 21.8968 130.736 21.6144 130.736 21.3343C130.739 18.6157 130.74 15.8971 130.734 13.178C130.734 12.8932 130.707 12.6055 130.663 12.3236C130.581 11.8079 130.37 11.3652 129.834 11.0857Z" fill="#404A71"/>
<path fill-rule="evenodd" clip-rule="evenodd" d="M126.355 17.7236C126.02 17.1739 125.52 16.9862 124.98 16.9646C123.982 16.9248 122.982 16.9424 121.983 16.9371H121.894V17.1927C121.894 18.5405 121.877 19.889 121.903 21.2357C121.913 21.7491 121.987 22.2678 122.096 22.7684C122.2 23.2438 122.462 23.6443 122.983 23.8806H117.318C118.083 23.5367 118.303 22.8736 118.414 22.1584C118.471 21.7906 118.485 21.4129 118.486 21.0386C118.491 17.609 118.49 14.1794 118.486 10.7497C118.486 10.4316 118.469 10.1112 118.424 9.79716C118.309 8.99486 117.981 8.32706 117.134 7.96802H127.805V12.0953C127.731 11.9356 127.681 11.8275 127.632 11.7199C127.185 10.7433 126.4 10.224 125.359 10.1714C124.235 10.1141 123.107 10.1468 121.981 10.1416L121.906 10.1422V14.7513L122.094 14.7519C122.896 14.7524 123.697 14.7606 124.498 14.7483C124.781 14.7437 125.066 14.7051 125.345 14.6536C125.763 14.577 126.112 14.3759 126.355 13.9618V17.7236Z" fill="#404A71"/>
<path fill-rule="evenodd" clip-rule="evenodd" d="M168.296 23.5394H164.37C164.962 23.2301 165.103 22.6927 165.173 22.1266C165.209 21.8372 165.212 21.5424 165.213 21.2501C165.215 18.6806 165.204 16.1117 165.22 13.5423C165.226 12.5961 164.807 11.9161 164.062 11.3985C163.916 11.2974 163.747 11.2003 163.564 11.088L163.742 11.0886C164.932 11.088 166.123 11.0892 167.314 11.0857C167.421 11.0857 167.49 11.1143 167.561 11.2038C169.433 13.5668 171.309 15.9269 173.183 18.2876L173.301 18.4303L173.304 18.2906C173.301 16.476 173.308 14.6615 173.284 12.847C173.28 12.5073 173.178 12.1611 173.074 11.833C172.967 11.5038 172.733 11.2594 172.367 11.1027H176.208C175.704 11.3553 175.518 11.8073 175.432 12.3043C175.376 12.6277 175.359 12.961 175.358 13.2903C175.354 16.6263 175.355 19.9624 175.355 23.2985V23.5435H173.479C173.136 22.916 172.848 22.2781 172.462 21.7073C171.923 20.9109 171.328 20.1519 170.726 19.4004C169.619 18.0175 168.49 16.6521 167.369 15.2796C167.355 15.2615 167.337 15.2445 167.295 15.2001C167.289 15.2866 167.281 15.3434 167.281 15.4007C167.28 17.4204 167.277 19.4414 167.284 21.4617C167.285 21.7465 167.314 22.0348 167.366 22.3143C167.467 22.857 167.711 23.3078 168.296 23.5394Z" fill="#404A71"/>
<path fill-rule="evenodd" clip-rule="evenodd" d="M186.791 14.8239C186.534 14.5292 186.299 14.2152 186.02 13.9497C185.449 13.4082 184.776 13.0497 183.99 12.9445C183.527 12.8831 183.064 12.8942 182.618 13.0679C181.625 13.4556 181.409 14.5818 182.223 15.2788C182.553 15.5619 182.94 15.787 183.327 15.9917C183.976 16.3361 184.653 16.6296 185.305 16.97C185.84 17.2489 186.332 17.5998 186.741 18.0506C187.501 18.888 187.734 19.8856 187.554 20.9815C187.319 22.4141 186.412 23.2691 185.104 23.7386C183.944 24.1544 182.752 24.1713 181.548 23.9725C180.775 23.8445 180.034 23.6187 179.352 23.2194C179.301 23.1889 179.242 23.1135 179.242 23.0585C179.235 21.9422 179.237 20.8259 179.269 19.6938C179.309 19.7704 179.347 19.847 179.387 19.9225C179.83 20.768 180.408 21.4885 181.297 21.889C182.193 22.2925 183.121 22.3714 184.063 22.0522C184.752 21.8183 185.107 21.3019 185.041 20.6283C184.995 20.1634 184.735 19.8037 184.37 19.5529C183.907 19.2359 183.413 18.9617 182.923 18.6874C182.281 18.329 181.609 18.0185 180.985 17.6325C180.254 17.1799 179.653 16.5817 179.423 15.7122C178.993 14.0801 179.639 12.3088 181.434 11.5434C182.686 11.0089 183.98 10.9662 185.29 11.2925C185.778 11.4141 186.249 11.5843 186.672 11.8627C186.728 11.8995 186.785 11.9825 186.786 12.0451C186.793 12.9737 186.791 13.9029 186.791 14.8239Z" fill="#404A71"/>
<path fill-rule="evenodd" clip-rule="evenodd" d="M237.716 17.7017L237.717 17.8608C237.723 19.2016 237.716 20.5425 237.744 21.8828C237.751 22.2044 237.855 22.5295 237.951 22.8418C238.045 23.1459 238.249 23.3798 238.595 23.5306H234.135C234.808 23.185 234.926 22.5582 235 21.9126C235.021 21.7214 235.018 21.5266 235.018 21.3331C235.019 18.6519 235.024 15.9702 235.013 13.2885C235.011 12.8874 234.964 12.4792 234.881 12.0868C234.791 11.6629 234.569 11.3015 234.105 11.0904H238.561C237.928 11.4401 237.77 12.0506 237.748 12.6763C237.705 13.9469 237.724 15.22 237.718 16.4918V16.6105C237.986 16.3199 238.259 16.0234 238.508 15.7492C239.372 14.7995 240.245 13.8581 241.092 12.8926C241.342 12.6067 241.545 12.2675 241.716 11.9254C241.919 11.5155 241.842 11.3295 241.453 11.0857H246.142C246.027 11.1331 245.949 11.1629 245.873 11.1968C245.24 11.4781 244.674 11.871 244.191 12.357C243.33 13.2224 242.498 14.1183 241.66 15.0077C241.161 15.5387 240.675 16.0825 240.168 16.6345C240.466 17.0129 240.764 17.3918 241.063 17.7707C242.097 19.0806 243.114 20.4051 244.176 21.6939C244.833 22.4915 245.441 23.0166 246.308 23.5382H246.165C244.925 23.5382 243.683 23.5371 242.443 23.5412C242.327 23.5412 242.255 23.5102 242.18 23.4143C240.749 21.5758 239.313 19.7414 237.878 17.907L237.716 17.7017Z" fill="#404A71"/>
<path fill-rule="evenodd" clip-rule="evenodd" d="M222.758 15.1849V15.4568C222.758 17.452 222.754 19.4478 222.761 21.443C222.762 21.7337 222.792 22.0284 222.844 22.3143C222.945 22.8576 223.19 23.3078 223.778 23.5394H219.832C220.427 23.2301 220.568 22.6927 220.639 22.1272C220.675 21.8372 220.678 21.5424 220.678 21.2501C220.681 18.6812 220.669 16.1117 220.686 13.5423C220.693 12.5961 220.271 11.9161 219.522 11.3985C219.375 11.2974 219.209 11.2015 219.025 11.0886H219.199C220.397 11.088 221.594 11.0898 222.791 11.0857C222.9 11.0857 222.969 11.1149 223.039 11.2038C224.922 13.5668 226.808 15.9275 228.693 18.2876L228.815 18.4233L228.814 18.2911C228.811 16.476 228.819 14.6615 228.794 12.847C228.79 12.5073 228.689 12.1611 228.583 11.8336C228.476 11.5038 228.24 11.2594 227.872 11.1027H231.735C231.227 11.3553 231.04 11.8073 230.954 12.3043C230.898 12.6277 230.881 12.961 230.881 13.2903C230.876 16.6263 230.878 19.9624 230.878 23.2985V23.5435H228.99C228.646 22.916 228.356 22.2781 227.968 21.7073C227.426 20.9109 226.827 20.1519 226.222 19.4004C225.109 18.0175 223.974 16.6521 222.847 15.2796C222.832 15.2615 222.815 15.2451 222.758 15.1849Z" fill="#404A71"/>
<path fill-rule="evenodd" clip-rule="evenodd" d="M209.32 18.9524C209.895 17.4297 210.466 15.9187 211.053 14.3638C211.651 15.914 212.234 17.4238 212.824 18.9524H209.32ZM213.586 23.5341H218.392C217.934 23.2733 217.701 23.0459 217.393 22.5845C216.985 21.9746 216.736 21.2898 216.462 20.6173C215.186 17.4818 213.912 14.3463 212.641 11.2097C212.606 11.126 212.567 11.0851 212.467 11.0857C211.812 11.091 211.158 11.091 210.502 11.0857C210.404 11.0851 210.36 11.1214 210.329 11.2079C210.194 11.5623 210.055 11.9143 209.917 12.2669C208.792 15.1539 207.672 18.0438 206.536 20.9267C206.148 21.9108 205.773 22.9137 204.835 23.5377H208.772C208.238 23.3429 208.026 22.8821 208.151 22.3629C208.294 21.7676 208.497 21.1869 208.676 20.5934H209.747H213.302C213.387 20.5934 213.467 20.577 213.507 20.6969C213.692 21.2436 213.904 21.7816 214.071 22.3342C214.245 22.912 214.098 23.2359 213.586 23.5341Z" fill="#404A71"/>
<path fill-rule="evenodd" clip-rule="evenodd" d="M199.341 20.8521C198.963 21.3457 198.43 21.5959 197.842 21.6228C196.844 21.6684 195.841 21.6351 194.815 21.6351V16.7617H194.951C195.818 16.7752 196.687 16.7483 197.549 16.8161C198.764 16.912 199.651 17.6529 199.789 18.9359C199.864 19.6305 199.779 20.2808 199.341 20.8521ZM194.817 10.1463C195.006 10.1463 195.186 10.1445 195.365 10.1463C195.93 10.1521 196.495 10.1469 197.058 10.1679C198.08 10.2053 198.826 10.7854 199.017 11.7813C199.185 12.6602 199.032 13.4923 198.325 14.1332C197.967 14.4577 197.525 14.5876 197.057 14.5987C196.319 14.6156 195.58 14.6028 194.817 14.6028V10.1463ZM202.32 16.7955C201.653 16.0862 200.831 15.6781 199.886 15.4675C199.983 15.4336 200.08 15.4015 200.175 15.3658C200.279 15.3272 200.386 15.2933 200.484 15.243C201.731 14.6056 202.454 13.5963 202.605 12.2011C202.757 10.8029 202.245 9.67313 201.128 8.83691C200.247 8.17847 199.216 7.97088 198.138 7.96971C195.543 7.96679 192.948 7.96854 190.353 7.96854H190.156C190.702 8.227 191.037 8.65037 191.186 9.20122C191.298 9.61933 191.391 10.055 191.402 10.4854C191.431 11.687 191.414 12.8893 191.414 14.0916C191.414 16.5195 191.434 18.948 191.4 21.376C191.386 22.3198 191.279 23.2729 190.331 23.8799H190.558C193.216 23.8799 195.875 23.8829 198.534 23.8788C199.695 23.877 200.782 23.6174 201.742 22.9233C203.691 21.5128 203.972 18.5516 202.32 16.7955Z" fill="#404A71"/>
<path fill-rule="evenodd" clip-rule="evenodd" d="M26.0782 16.6376C27.1142 17.3056 28.0198 18.5493 28.4283 19.641C28.5674 20.0119 28.6789 20.3605 28.7658 20.7462C28.9049 21.366 28.9366 21.9552 28.9248 22.5885C28.9096 23.422 28.7452 24.1562 28.5733 24.9627C28.4066 25.7462 28.2235 26.5691 28.3021 27.3744L28.4013 28.4021L27.3742 28.3023C26.5689 28.2237 25.746 28.4068 24.9625 28.5735C24.1554 28.7455 23.4218 28.9098 22.5883 28.9251C21.955 28.9362 21.3657 28.9051 20.7453 28.766C20.3597 28.6792 20.0117 28.5676 19.6407 28.4291C18.549 28.02 17.3053 27.1144 16.6374 26.0784C15.9695 27.1144 14.7252 28.02 13.6335 28.4291C13.2637 28.5676 12.9145 28.6792 12.5295 28.766C11.9091 28.9051 11.3198 28.9362 10.6865 28.9251C9.85308 28.9098 9.11941 28.7455 8.31179 28.5735C7.52882 28.4068 6.70594 28.2237 5.90067 28.3023L4.87295 28.4021L4.97273 27.3744C5.05079 26.5691 4.86825 25.7462 4.70156 24.9627C4.52959 24.1562 4.36525 23.422 4.34999 22.5885C4.33825 21.9552 4.36994 21.366 4.50905 20.7456C4.59591 20.3605 4.70684 20.0119 4.84595 19.641C5.25504 18.5493 6.16068 17.3056 7.19662 16.6376C6.16068 15.9697 5.25504 14.7254 4.84595 13.6337C4.70684 13.2634 4.59591 12.9148 4.50905 12.5297C4.36994 11.9093 4.33825 11.3201 4.34999 10.6868C4.36525 9.8533 4.52959 9.11964 4.70156 8.3126C4.86825 7.52905 5.05079 6.70617 4.97273 5.90089L4.87295 4.87318L5.90067 4.97296C6.70594 5.05161 7.52882 4.86848 8.31179 4.70179C9.11941 4.52982 9.85308 4.36548 10.6865 4.35022C11.3198 4.33907 11.9091 4.37018 12.5295 4.50928C12.9145 4.59615 13.2637 4.70766 13.6335 4.84677C14.7252 5.25527 15.9695 6.1609 16.6374 7.19684C17.3053 6.1609 18.549 5.25527 19.6407 4.84677C20.0117 4.70766 20.3603 4.59556 20.7453 4.50928C21.3657 4.37018 21.955 4.33907 22.5883 4.35022C23.4218 4.36548 24.1554 4.52982 24.9625 4.70179C25.746 4.86848 26.5689 5.05161 27.3742 4.97296L28.4013 4.87318L28.3021 5.90089C28.2235 6.70617 28.4066 7.52905 28.5733 8.3126C28.7452 9.11964 28.9096 9.8533 28.9248 10.6868C28.9366 11.3201 28.9049 11.9093 28.7658 12.5291C28.6789 12.9148 28.5674 13.2634 28.4283 13.6337C28.0198 14.7254 27.1142 15.9697 26.0782 16.6376ZM26.5918 26.5921C26.6229 25.9265 26.7485 25.2756 26.877 24.6211C27.0326 23.8305 27.2486 23.1831 27.2521 22.3603C27.2544 21.9136 27.2004 21.427 27.0872 20.9945C26.6399 19.29 24.9478 17.2786 23.1776 16.8924L22.009 16.6377L23.1776 16.3829C24.9478 15.9973 26.6399 13.9854 27.0872 12.2809C27.2004 11.8483 27.2544 11.3618 27.2521 10.9151C27.2486 10.0922 27.0326 9.44484 26.877 8.65424C26.7485 7.99981 26.6229 7.3489 26.5918 6.68332C25.9256 6.65221 25.2753 6.52661 24.6209 6.39807C23.8303 6.24253 23.1823 6.02654 22.36 6.02302C21.9133 6.02067 21.4268 6.07467 20.9942 6.18795C19.2897 6.63519 17.2777 8.32732 16.8921 10.0969L16.6374 11.2655L16.3827 10.0975C15.9971 8.32732 13.9851 6.63519 12.2806 6.18795C11.8481 6.07467 11.3615 6.02067 10.9148 6.02302C10.092 6.02654 9.44458 6.24253 8.65398 6.39807C7.99955 6.52661 7.34864 6.65221 6.68306 6.68332C6.65195 7.3489 6.52634 7.99981 6.39781 8.65424C6.24168 9.44484 6.02628 10.0922 6.02217 10.9151C6.02041 11.3618 6.07441 11.8483 6.18768 12.2809C6.63493 13.9854 8.32706 15.9973 10.0967 16.3829L11.2652 16.6377L10.0967 16.8924C8.32706 17.2786 6.63493 19.29 6.18768 20.9945C6.07441 21.427 6.02041 21.9136 6.02217 22.3603C6.02628 23.1831 6.24168 23.8305 6.39781 24.6211C6.52634 25.2756 6.65195 25.9265 6.68306 26.5921C7.34864 26.6232 7.99955 26.7488 8.65398 26.8773C9.44458 27.0328 10.092 27.2488 10.9148 27.2529C11.3615 27.2547 11.8481 27.2007 12.2806 27.0874C13.9851 26.6402 15.9971 24.9481 16.3827 23.1779L16.6374 22.0099L16.8921 23.1785C17.2777 24.9481 19.2897 26.6402 20.9942 27.0874C21.4268 27.2007 21.9133 27.2547 22.36 27.2529C23.1823 27.2488 23.8303 27.0328 24.6209 26.8773C25.2753 26.7488 25.9256 26.6232 26.5918 26.5921Z" fill="#D1AA3B"/>
<path fill-rule="evenodd" clip-rule="evenodd" d="M23.313 9.96178C24.518 9.70177 26.0381 9.94124 27.0987 10.4237C27.4591 10.5875 27.7848 10.7554 28.1182 10.9661C28.6553 11.3065 29.0943 11.7009 29.5339 12.157C30.1126 12.7568 30.5153 13.3924 30.9643 14.0844C31.4003 14.7559 31.8529 15.4673 32.4774 15.9814L33.275 16.6382L32.4774 17.2932C31.8523 17.8074 31.4003 18.5187 30.9643 19.1908C30.5153 19.8828 30.1126 20.5178 29.5339 21.1183C29.0943 21.5743 28.6553 21.9687 28.1182 22.3091C27.7848 22.5198 27.4591 22.6877 27.0987 22.8515C26.0381 23.3339 24.518 23.5734 23.313 23.3134C23.573 24.5184 23.3335 26.0379 22.8511 27.0991C22.6873 27.4595 22.5195 27.7846 22.3088 28.1186C21.9683 28.6556 21.5739 29.0941 21.1179 29.5343C20.518 30.113 19.883 30.5151 19.191 30.9646C18.5189 31.4007 17.8076 31.8527 17.2934 32.4778L16.6372 33.2748L15.981 32.4778C15.4675 31.8533 14.7561 31.4007 14.0841 30.9646C13.3921 30.5151 12.757 30.113 12.1566 29.5343C11.7005 29.0941 11.3061 28.6556 10.9663 28.1186C10.755 27.7846 10.5871 27.4595 10.4239 27.0991C9.94089 26.0379 9.70201 24.5184 9.96143 23.3134C8.75705 23.5734 7.23689 23.3339 6.17571 22.8515C5.81534 22.6877 5.49017 22.5198 5.1568 22.3086C4.61917 21.9687 4.18073 21.5743 3.74111 21.1183C3.1624 20.5178 2.75976 19.8828 2.31017 19.1908C1.87467 18.5187 1.42214 17.8074 0.797055 17.2938L0 16.6376L0.797055 15.9814C1.42214 15.4678 1.87467 14.7559 2.31017 14.0844C2.75976 13.3924 3.1624 12.7568 3.74111 12.157C4.18073 11.7009 4.61917 11.3065 5.15621 10.9661C5.49017 10.7554 5.81592 10.5875 6.17571 10.4237C7.23689 9.94124 8.75705 9.70177 9.96143 9.96178C9.70201 8.75681 9.94089 7.23723 10.4239 6.17606C10.5871 5.81627 10.755 5.48993 10.9663 5.15656C11.3067 4.61951 11.7011 4.18049 12.1566 3.74087C12.757 3.16216 13.3921 2.76011 14.0841 2.31052C14.7561 1.87443 15.4675 1.42249 15.9816 0.797398L16.6372 -0.000244141L17.2934 0.797398C17.8076 1.4219 18.5189 1.87443 19.191 2.31052C19.883 2.75952 20.518 3.16274 21.1179 3.74087C21.5739 4.18049 21.9677 4.61951 22.3088 5.15656C22.5195 5.48993 22.6873 5.81627 22.8511 6.17606C23.3335 7.23723 23.573 8.75681 23.313 9.96178ZM30.7154 16.6376C30.2664 16.1451 29.8949 15.5963 29.5233 15.0417C29.0743 14.3732 28.7686 13.7628 28.1898 13.1782C27.8752 12.8606 27.4931 12.5543 27.1075 12.3295C25.5862 11.4403 22.9667 11.2143 21.4419 12.1927L20.4359 12.8389L21.0821 11.8329C22.0611 10.3081 21.8345 7.68854 20.9459 6.1678C20.7205 5.78159 20.4141 5.3995 20.0966 5.0849C19.512 4.50619 18.9016 4.2004 18.2331 3.75198C17.6784 3.37986 17.1303 3.00833 16.6372 2.55933C16.1448 3.00892 15.596 3.38045 15.0419 3.75198C14.3728 4.2004 13.7624 4.50619 13.1778 5.0849C12.8603 5.3995 12.5545 5.78159 12.3291 6.1678C11.4399 7.68854 11.214 10.3081 12.193 11.8329L12.8386 12.8389L11.8326 12.1927C10.3083 11.2137 7.68884 11.4403 6.1681 12.3295C5.7819 12.5548 5.39921 12.8606 5.08462 13.1782C4.50649 13.7628 4.2007 14.3732 3.75169 15.0417C3.38016 15.5963 3.00864 16.1445 2.55963 16.6376C3.00864 17.13 3.38016 17.6788 3.75169 18.2328C4.2007 18.9019 4.5059 19.5124 5.08462 20.0969C5.39921 20.4145 5.7819 20.7203 6.1681 20.9456C7.68884 21.8348 10.3083 22.0608 11.8326 21.0824L12.8386 20.4362L12.193 21.4422C11.214 22.967 11.4399 25.5859 12.3291 27.1073C12.5545 27.4935 12.8603 27.8756 13.1778 28.1902C13.7624 28.7689 14.3728 29.0747 15.0419 29.5231C15.596 29.8952 16.1448 30.2667 16.6372 30.7152C17.1303 30.2661 17.6784 29.8952 18.2331 29.5231C18.9022 29.0747 19.5126 28.7689 20.0966 28.1902C20.4141 27.8756 20.7205 27.4935 20.9459 27.1073C21.8345 25.5859 22.0611 22.967 21.0821 21.4422L20.4364 20.4362L21.4425 21.0824C22.9667 22.0608 25.5862 21.8348 27.1075 20.9456C27.4931 20.7203 27.8752 20.4145 28.1904 20.0969C28.7686 19.5124 29.0743 18.9019 29.5233 18.2334C29.8949 17.6788 30.2664 17.13 30.7154 16.6376Z" fill="#D1AA3B"/>
</svg>
